<svg width="37" height="37" viewBox="0 0 37 37" fill="none" xmlns="http://www.w3.org/2000/svg">
<path d="M31.1755 0C33.3431 0 35.0914 1.75287 35.1947 3.81562V37L31.0676 33.4958L28.8014 31.433L26.3285 29.2778L27.3615 32.6772H5.71954C3.55813 32.6772 1.80371 31.0353 1.80371 28.86V3.82333C1.80371 1.76058 3.56121 0.004625 5.72725 0.004625H31.1648L31.1755 0ZM21.7436 8.76129H21.6974L21.386 9.06962C24.5818 9.99463 26.1281 11.4392 26.1281 11.4392C24.0685 10.4093 22.2123 9.89442 20.3561 9.68629C19.0149 9.47817 17.6736 9.58762 16.5405 9.68629H16.2322C15.5076 9.68629 13.9659 9.99463 11.9001 10.8194C11.1801 11.1324 10.767 11.3374 10.767 11.3374C10.767 11.3374 12.3117 9.79267 15.7157 8.96787L15.5076 8.75975C15.5076 8.75975 12.9299 8.66108 10.1472 10.7177C10.1472 10.7177 7.3645 15.5647 7.3645 21.5402C7.3645 21.5402 8.90617 24.2227 13.135 24.3244C13.135 24.3244 13.7516 23.5027 14.376 22.7797C12.0018 22.0582 11.0768 20.6152 11.0768 20.6152C11.0768 20.6152 11.2834 20.7169 11.5933 20.9235H11.6858C11.732 20.9235 11.7536 20.9466 11.7783 20.9697V20.979C11.803 21.0037 11.8245 21.0252 11.8708 21.0252C12.3795 21.2349 12.8883 21.4415 13.3045 21.6419C14.023 21.9533 14.9464 22.2632 16.0795 22.4683C17.5133 22.6764 19.1567 22.7766 21.0283 22.4683C21.9533 22.2601 22.8783 22.0566 23.8033 21.6435C24.4045 21.3351 25.1445 21.0268 25.957 20.5072C25.957 20.5072 25.032 21.9503 22.5576 22.6717C23.0664 23.3902 23.7833 24.2134 23.7833 24.2134C28.0136 24.1209 29.657 21.4384 29.7495 21.5525C29.7495 15.5862 26.9514 10.73 26.9514 10.73C24.4308 8.85842 22.072 8.7875 21.6558 8.7875L21.7421 8.75667L21.7436 8.76129ZM22.0026 15.5647C23.0864 15.5647 23.9605 16.4897 23.9605 17.6228C23.9605 18.7636 23.0818 19.6886 22.0026 19.6886C20.9235 19.6886 20.0447 18.7636 20.0447 17.632C20.0478 16.4912 20.9281 15.5693 22.0026 15.5693V15.5647ZM14.9988 15.5647C16.078 15.5647 16.9506 16.4897 16.9506 17.6228C16.9506 18.7636 16.0718 19.6886 14.9927 19.6886C13.9135 19.6886 13.0348 18.7636 13.0348 17.632C13.0348 16.4912 13.9135 15.5693 14.9927 15.5693L14.9988 15.5647Z" fill="#7289DA"/>
</svg>
