<svg width="37" height="37" viewBox="0 0 37 37" fill="none" xmlns="http://www.w3.org/2000/svg">
<g clip-path="url(#clip0)">
<path d="M36.9291 7.04389C35.5647 7.6436 34.1078 8.05214 32.5739 8.23868C34.1371 7.29672 35.3396 5.8121 35.9085 4.04073C34.4424 4.89635 32.8175 5.51918 31.0877 5.86606C29.7064 4.3876 27.7377 3.4626 25.5516 3.4626C21.3629 3.4626 17.9666 6.85889 17.9666 11.043C17.9666 11.6442 18.036 12.2223 18.1624 12.7758C11.857 12.4783 6.26842 9.45043 2.52833 4.87323C1.87004 5.98631 1.50158 7.27977 1.50158 8.68885C1.50158 11.3251 2.84283 13.6422 4.87475 15.0035C3.63062 14.9634 2.4605 14.6212 1.43992 14.0538V14.1479C1.43992 17.8248 4.04996 20.8911 7.52333 21.5895C6.88662 21.7606 6.21446 21.8531 5.52533 21.8531C5.04125 21.8531 4.57721 21.8069 4.11317 21.7206C5.08596 24.7314 7.88254 26.9268 11.211 26.9884C8.621 29.0219 5.33879 30.2336 1.80375 30.2336C1.2025 30.2336 0.602792 30.1982 0 30.1303C3.37471 32.2794 7.35067 33.5359 11.6504 33.5359C25.6086 33.5359 33.2322 21.9796 33.2322 11.9741C33.2322 11.6519 33.2322 11.3266 33.209 11.0029C34.6906 9.94068 35.984 8.59789 37.0015 7.07473L36.9291 7.04389Z" fill="#1DA1F2"/>
</g>
<defs>
<clipPath id="clip0">
<rect width="37" height="37" fill="white"/>
</clipPath>
</defs>
</svg>
