<svg width="37" height="37" viewBox="0 0 37 37" fill="none" xmlns="http://www.w3.org/2000/svg">
<path d="M36.2212 9.56603C36.0068 8.79792 35.5979 8.09809 35.034 7.5342C34.4701 6.9703 33.7703 6.56141 33.0022 6.34704C30.1192 5.57466 18.5167 5.57466 18.5167 5.57466C18.5167 5.57466 6.94337 5.55924 4.03116 6.34704C3.26305 6.56141 2.56322 6.9703 1.99932 7.5342C1.43543 8.09809 1.02653 8.79792 0.812163 9.56603C0.265674 12.5176 -0.00374775 15.5137 0.00741307 18.5154C-0.00163786 21.5058 0.267775 24.4905 0.812163 27.4309C1.02653 28.199 1.43543 28.8988 1.99932 29.4627C2.56322 30.0266 3.26305 30.4355 4.03116 30.6499C6.911 31.4238 18.5167 31.4238 18.5167 31.4238C18.5167 31.4238 30.0884 31.4238 33.0022 30.6499C33.7703 30.4355 34.4701 30.0266 35.034 29.4627C35.5979 28.8988 36.0068 28.199 36.2212 27.4309C36.7542 24.4894 37.0122 21.5047 36.992 18.5154C37.0143 15.5148 36.7563 12.5186 36.2212 9.56603ZM14.8136 24.0515V12.9623L24.4706 18.5154L14.8136 24.0515Z" fill="#FF0000"/>
</svg>
