<svg width="50" height="51" viewBox="0 0 50 51" fill="none" xmlns="http://www.w3.org/2000/svg">
<path d="M4.93095 45.9088L0.146468 18.2017C0.100269 17.9343 0.0714706 17.6641 0.0602606 17.3928C-0.0108437 14.2515 2.2005 11.5381 5.2413 11.0353L14.4741 9.37344L14.2241 45.9088H4.93095Z" fill="#4CC3C3"/>
<path d="M40.4651 44.6953C40.305 45.3733 39.7673 45.8907 39.0944 46.0143L11.922 50.9033C10.2093 51.2082 8.45083 50.7462 7.09579 49.6351C5.74076 48.524 4.92045 46.8715 4.84443 45.0998C4.77653 42.0965 6.80372 39.4648 9.68064 38.8215L17.2927 41.0022H17.2841L10.4306 42.2421C9.66628 42.3791 9.00242 42.8585 8.6217 43.5483C8.24098 44.2381 8.18352 45.0656 8.46512 45.8033C8.95272 46.9913 10.1911 47.667 11.4306 47.4212L32.1979 43.6841L40.4651 44.6953Z" fill="#326565"/>
<path d="M17.2846 41.0022L10.4311 42.2421C9.66678 42.3791 9.00292 42.8584 8.6222 43.5482C8.24148 44.238 8.18402 45.0656 8.46562 45.8033C8.95322 46.9913 10.1916 47.667 11.4311 47.4212L32.1984 43.6841L17.2846 41.0022Z" fill="white"/>
<path d="M11.0566 29.1675L15.8472 1.4569C16.0186 0.504393 16.9084 -0.130963 17.8446 0.0306616L44.8075 4.88006C47.8505 5.38317 50.0635 8.09834 49.9928 11.2419C49.9811 11.512 49.9523 11.781 49.9066 12.0473L45.1161 39.7579L11.0566 29.1675Z" fill="#C34C4C"/>
<path d="M39.1703 9.20989C39.1197 9.20987 39.0692 9.20545 39.0194 9.1967L19.4927 5.68473C19.052 5.57388 18.7711 5.13351 18.8502 4.67766C18.9294 4.22181 19.3415 3.90663 19.7927 3.95689L39.3185 7.46446C39.7589 7.54315 40.0672 7.95217 40.0286 8.40649C39.99 8.86081 39.6173 9.20964 39.1703 9.20989Z" fill="#1E1E20"/>
<path d="M35.0254 12.9259C34.9748 12.9259 34.9243 12.9212 34.8746 12.9118L22.1401 10.6247C21.6819 10.5299 21.3813 10.0799 21.4624 9.61032C21.5436 9.14071 21.9769 8.82265 22.4392 8.89334L35.1746 11.1795C35.6175 11.2559 35.9287 11.6664 35.8897 12.1229C35.8508 12.5793 35.4746 12.9288 35.0254 12.9259Z" fill="#1E1E20"/>
<path d="M36.8256 16.8532L18.9937 13.6402C18.5247 13.5557 18.0774 13.875 17.9945 14.3534L16.4945 23.0146C16.4117 23.4929 16.7247 23.9492 17.1937 24.0337L35.0256 27.2467C35.4945 27.3312 35.9419 27.0119 36.0247 26.5336L37.5247 17.8724C37.6075 17.394 37.2945 16.9377 36.8256 16.8532Z" fill="white"/>
<path d="M49.9907 11.2376C49.9804 11.509 49.9516 11.7793 49.9045 12.0466L45.1114 39.7536L38.4648 37.6872L42.3183 15.4055L43.2321 10.1472L44.1631 4.76587L44.8097 4.88018C47.8491 5.38538 50.0592 8.09728 49.9907 11.2376Z" fill="#B43737"/>
<path d="M40.0174 32.5872L13.0518 27.7422C12.9522 27.7247 12.8512 27.7159 12.7501 27.7159C11.8566 27.7182 11.1129 28.4163 11.0366 29.3244C10.9604 30.2325 11.5769 31.0495 12.457 31.2067L39.6208 36.0869C40.3845 36.228 41.0463 36.71 41.4251 37.4009C41.8038 38.0919 41.8598 38.9194 41.5777 39.6569C41.0927 40.8423 39.8562 41.5153 38.6208 41.266L11.5605 36.4034C11.4608 36.3859 11.3599 36.3771 11.2587 36.3771C10.3636 36.3748 9.61563 37.0717 9.53702 37.9812C9.4584 38.8908 10.0753 39.7104 10.957 39.8679L38.1294 44.7481C39.8409 45.0541 41.5986 44.5936 42.9537 43.4842C44.3087 42.3748 45.1297 40.724 45.207 38.9534C45.2747 35.8086 43.0611 33.0932 40.0174 32.5872Z" fill="#B43737"/>
<path d="M41.5778 39.6569C41.0928 40.8423 39.8563 41.5153 38.6209 41.266L11.5605 36.4035L12.4571 31.2067L39.6209 36.0869C40.3846 36.228 41.0464 36.71 41.4252 37.4009C41.8039 38.0919 41.8599 38.9194 41.5778 39.6569Z" fill="white"/>
</svg>
