<svg width="50" height="51" viewBox="0 0 50 51" fill="none" xmlns="http://www.w3.org/2000/svg">
<path d="M44.5312 39.0469H2.34375V18.3281C2.34375 16.5677 3.74287 15.1406 5.46875 15.1406H41.4062C43.1321 15.1406 44.5312 16.5677 44.5312 18.3281V39.0469Z" fill="#463C4B"/>
<path d="M41.4062 39.0469H2.34375V18.3281C2.34375 16.5677 3.74287 15.1406 5.46875 15.1406H38.2812C40.0071 15.1406 41.4062 16.5677 41.4062 18.3281V39.0469Z" fill="#555A6E"/>
<path d="M5.46875 43.0312H41.4062C43.1321 43.0312 44.5312 41.6041 44.5312 39.8438V39.0469H2.34375V39.8438C2.34375 41.6041 3.74287 43.0312 5.46875 43.0312Z" fill="#A5C3DC"/>
<path d="M38.2812 43.0312H5.46875C3.74287 43.0312 2.34375 41.6041 2.34375 39.8438V39.0469H41.4062V39.8438C41.4062 41.6041 40.0071 43.0312 38.2812 43.0312Z" fill="#D7E6F0"/>
<path d="M18.75 43.0312H25.7812V46.2188H18.75V43.0312Z" fill="#A5C3DC"/>
<path d="M18.75 44.625H23.4375V46.2188H18.75V44.625Z" fill="#D7E6F0"/>
<path d="M29.6875 48.6094H14.0625V47.8125C14.0625 46.9323 14.762 46.2188 15.625 46.2188H28.125C28.988 46.2188 29.6875 46.9323 29.6875 47.8125V48.6094Z" fill="#D7E6F0"/>
<path d="M29.6875 48.6094H25V47.8125C25 46.9323 25.6995 46.2188 26.5625 46.2188H28.125C28.988 46.2188 29.6875 46.9323 29.6875 47.8125V48.6094Z" fill="#A5C3DC"/>
<path d="M10.9375 32.2738C10.6375 32.2738 10.3376 32.1571 10.1088 31.9237L6.20259 27.9393C5.74497 27.4724 5.74497 26.7157 6.20259 26.2488L10.1088 22.2644C10.5666 21.7977 11.3084 21.7977 11.7662 22.2644C12.2238 22.7313 12.2238 23.488 11.7662 23.9549L8.68853 27.0941L11.7662 30.2333C12.2238 30.7002 12.2238 31.4569 11.7662 31.9238C11.5373 32.1571 11.2374 32.2738 10.9375 32.2738Z" fill="#D7E6F0"/>
<path d="M21.875 32.2734C21.5751 32.2734 21.2752 32.1567 21.0464 31.9233C20.5888 31.4564 20.5888 30.6997 21.0464 30.2328L24.124 27.0937L21.0463 23.9545C20.5887 23.4877 20.5887 22.7309 21.0463 22.2641C21.5041 21.7973 22.2459 21.7973 22.7037 22.2641L26.6099 26.2484C27.0675 26.7153 27.0675 27.472 26.6099 27.9389L22.7037 31.9233C22.4749 32.1567 22.175 32.2734 21.875 32.2734Z" fill="#D7E6F0"/>
<path d="M14.8437 32.2737C14.6989 32.2737 14.5516 32.2463 14.4088 32.188C13.8079 31.9428 13.5157 31.2472 13.756 30.6342L16.881 22.6654C17.1213 22.0526 17.8032 21.7544 18.4042 21.9995C19.0051 22.2447 19.2974 22.9403 19.0571 23.5533L15.9321 31.5221C15.7489 31.9894 15.3087 32.2737 14.8437 32.2737Z" fill="#D7E6F0"/>
<path d="M28.9062 36.6562H44.5312C46.2571 36.6562 47.6562 35.2291 47.6562 33.4687V20.7187C47.6562 18.9583 46.2571 17.5312 44.5312 17.5312H28.9062C27.1804 17.5312 25.7812 18.9583 25.7812 20.7187V33.4687C25.7812 35.2291 27.1804 36.6562 28.9062 36.6562Z" fill="#1EB4B4"/>
<path d="M28.9062 36.6562H39.8438C41.5696 36.6562 42.9688 35.2291 42.9688 33.4687V20.7187C42.9688 18.9583 41.5696 17.5312 39.8438 17.5312H28.9062C27.1804 17.5312 25.7812 18.9583 25.7812 20.7187V33.4687C25.7812 35.2291 27.1804 36.6562 28.9062 36.6562Z" fill="#4CC3C3"/>
<path d="M32.0312 17.5312H28.9062V10.461C28.9062 6.07378 32.3407 2.43355 36.6417 2.39102C40.9848 2.34809 44.5312 5.93921 44.5312 10.3594C44.5312 11.2396 43.8317 11.9531 42.9688 11.9531H42.89C42.0705 11.9531 41.4062 11.2755 41.4062 10.4397C41.4062 7.82152 39.3757 5.62872 36.8094 5.57902C34.1834 5.52822 32.0312 7.69233 32.0312 10.3594V17.5312Z" fill="#C34C4C"/>
<path d="M37.5 23.9062C37.5 22.0709 35.9792 20.5978 34.1529 20.7266C32.6108 20.8353 31.3622 22.1107 31.2574 23.6838C31.1728 24.9556 31.8204 26.0807 32.8125 26.6663V31.875C32.8125 32.7552 33.512 33.4687 34.375 33.4687C35.238 33.4687 35.9375 32.7552 35.9375 31.875V26.6662C36.8713 26.1151 37.5 25.0859 37.5 23.9062Z" fill="#555A6E"/>
<path d="M46.0938 14.3438C45.8939 14.3438 45.6939 14.266 45.5414 14.1104C45.2362 13.7991 45.2362 13.2947 45.5414 12.9834L47.1039 11.3897C47.409 11.0786 47.9036 11.0786 48.2087 11.3897C48.5138 11.7009 48.5138 12.2054 48.2087 12.5166L46.6462 14.1104C46.4937 14.266 46.2937 14.3438 46.0938 14.3438Z" fill="#C34C4C"/>
<path d="M39.8438 14.3438C39.6439 14.3438 39.4439 14.266 39.2914 14.1104L37.7289 12.5166C37.4237 12.2054 37.4237 11.7009 37.7289 11.3897C38.034 11.0786 38.5286 11.0786 38.8337 11.3897L40.3962 12.9834C40.7013 13.2947 40.7013 13.7991 40.3962 14.1104C40.2437 14.266 40.0437 14.3438 39.8438 14.3438Z" fill="#C34C4C"/>
</svg>
